<svg xmlns="http://www.w3.org/2000/svg" width="255" height="62" viewBox="0 0 255 62" fill="none"><path d="M189.671 27.507C189.661 18.8047 196.376 12.0802 205.088 12.0701C213.871 12.0599 220.647 18.7946 220.636 27.5171C220.626 36.2498 213.831 43.1264 205.2 43.1366C196.447 43.1467 189.682 36.3411 189.671 27.507ZM194.317 27.7504C194.347 28.1257 194.347 28.7849 194.449 29.4138C195.098 33.6736 197.319 36.8077 201.457 38.1972C205.484 39.5461 209.317 38.9376 212.522 35.9658C215.19 33.4911 216.123 30.286 215.951 26.7361C215.677 20.8535 210.758 15.2853 203.06 16.5734C197.745 17.4659 194.327 21.8779 194.317 27.7504Z" fill="white"></path><path d="M62.88 27.568C62.8597 36.3818 56.0744 43.1672 47.3113 43.1368C38.6597 43.0962 31.9657 36.25 31.9758 27.4463C31.9961 18.7035 38.7611 12.0297 47.5547 12.0703C56.2671 12.1007 62.9003 18.815 62.88 27.568ZM58.2449 27.4463C58.2449 27.2434 58.255 27.0406 58.2449 26.8377C58.113 22.446 55.2731 18.389 51.2161 17.0198C47.1591 15.6506 42.3313 16.4315 39.2683 19.9916C37.0775 22.5373 36.3979 25.5091 36.6413 28.775C37.189 36.1891 44.5829 40.8141 51.5001 38.0655C55.7498 36.3818 58.2652 32.4161 58.2449 27.4463Z" fill="white"></path><path d="M169.113 42.893C167.165 42.893 165.441 42.893 163.575 42.893C160.603 38.8867 157.571 34.8094 154.447 30.6205C151.353 34.7485 148.321 38.8055 145.258 42.893C143.533 42.893 141.799 42.893 139.841 42.893C143.848 37.6696 147.763 32.5578 151.728 27.3749C147.986 22.537 144.243 17.699 140.399 12.7292C142.377 12.7292 144.172 12.7292 146.008 12.7292C148.878 16.492 151.759 20.2752 154.69 24.1293C157.591 20.2448 160.41 16.4616 163.22 12.6987C164.975 12.6987 166.668 12.6987 168.626 12.6987C164.833 17.6381 161.141 22.4457 157.398 27.3141C161.273 32.4462 165.117 37.5783 169.113 42.893Z" fill="white"></path><path d="M73.2659 42.4571C71.8054 42.4571 70.4361 42.4571 69.0669 42.4571C68.8133 42.1224 68.935 41.7472 68.935 41.4125C68.9249 35.6819 69.0365 29.9413 68.9046 24.2108C68.7221 16.6952 73.7223 11.9992 80.4265 11.2284C84.3719 10.7719 88.1855 11.2385 91.563 13.5713C94.5652 15.6505 96.4314 18.5411 96.5227 22.1721C96.6951 28.9067 96.5734 35.6515 96.5734 42.4571C95.194 42.4571 93.8349 42.4571 92.3947 42.4571C92.2222 42.0616 92.3034 41.6153 92.3034 41.1893C92.2932 35.2864 92.2932 29.3936 92.2932 23.4906C92.2932 20.4986 91.1877 18.0238 88.6318 16.401C84.7371 13.9263 77.6779 14.0378 74.6554 18.6121C73.6615 20.1132 73.2659 21.7664 73.2659 23.5414C73.2659 29.3936 73.2659 35.256 73.2659 41.1082C73.2659 41.5037 73.2659 41.9094 73.2659 42.4571Z" fill="white"></path><path d="M254.949 42.9743C253.468 42.9743 252.149 42.9743 250.821 42.9743C250.516 42.5483 250.658 42.0919 250.658 41.6659C250.648 35.9253 250.648 30.1948 250.648 24.4541C250.648 21.888 249.989 19.5958 248.072 17.7702C244.269 14.1595 236.996 14.5449 233.639 18.541C232.3 20.1334 231.814 22.0199 231.814 24.0484C231.803 29.9006 231.814 35.763 231.814 41.6152C231.814 42.0209 231.814 42.4165 231.814 42.9033C230.373 42.9033 228.994 42.9033 227.604 42.9033C227.381 42.5078 227.493 42.0919 227.493 41.7065C227.483 36.0064 227.584 30.3165 227.462 24.6164C227.3 17.0704 232.463 12.3541 239.299 11.6543C242.534 11.3196 245.678 11.6948 248.589 13.2669C252.251 15.2548 254.594 18.3077 254.807 22.4763C255.172 29.2718 254.898 36.0673 254.949 42.9743Z" fill="white"></path><path d="M26.7828 16.9385C25.7381 17.8919 24.7543 18.7946 23.6792 19.7784C21.0523 16.9487 17.5734 16.0257 13.699 16.5126C11.0214 16.8574 8.8103 18.1556 7.09621 20.2349C3.60719 24.444 3.92161 31.5539 7.59319 35.5399C10.8895 39.1304 18.3747 40.6822 23.9632 35.3573C24.8862 36.3107 25.8091 37.2743 26.7422 38.2378C24.0849 41.9703 17.6951 44.0698 11.8733 42.7512C5.36184 41.2806 0.645577 35.8442 0.0674543 29.1704C-0.541096 22.1518 3.00878 15.904 9.06386 13.3278C15.2508 10.711 22.5737 12.1614 26.7828 16.9385Z" fill="white"></path><path d="M182.227 42.4366C180.726 42.4366 179.326 42.4366 177.937 42.4366C177.805 41.3717 177.774 14.2405 177.906 12.7495C179.316 12.7495 180.746 12.7495 182.237 12.7495C182.227 22.6385 182.227 32.5071 182.227 42.4366Z" fill="white"></path><path d="M205.474 1.49169C207.898 1.49169 210.332 1.48155 212.756 1.49169C214.44 1.50183 215.099 2.18138 215.099 3.85489C215.099 5.4777 214.379 6.22824 212.736 6.22824C207.887 6.23838 203.029 6.23838 198.181 6.22824C196.558 6.22824 195.838 5.45741 195.838 3.83461C195.838 2.17124 196.508 1.49169 198.201 1.49169C200.615 1.48155 203.049 1.49169 205.474 1.49169Z" fill="white"></path><path d="M180.066 6.29901C178.373 6.30916 176.973 4.86892 176.963 3.11427C176.963 1.39004 178.281 0.0309435 179.985 0.000515995C181.781 -0.0299115 183.13 1.28861 183.14 3.09398C183.14 4.88921 181.801 6.29901 180.066 6.29901Z" fill="white"></path><path d="M229.795 57.9548C229.44 57.5593 229.582 57.0927 229.734 56.6566C228.913 55.977 228.639 55.1656 229.035 54.2528C229.613 52.9444 230.799 52.8937 232.016 53.0256C232.3 52.6199 232.554 52.2649 232.797 51.92C233.102 51.849 233.264 52.0316 233.447 52.204C233.416 52.6604 232.95 52.9241 232.889 53.3603C233.751 54.6281 233.812 55.3989 233.183 56.2002C232.473 57.113 231.378 56.8797 230.444 57.0724C230.394 57.5795 230.647 57.7215 231.012 57.7013C231.509 57.681 231.976 57.7723 232.432 57.9345C233.102 58.178 233.507 58.6547 233.548 59.3748C233.599 60.1557 233.193 60.6933 232.503 60.9874C231.692 61.3424 230.85 61.3424 230.018 61.0381C228.629 60.5209 228.517 59.2125 229.795 57.9548ZM229.917 55.6119C230.759 56.3219 231.672 56.4537 232.28 55.9263C232.767 55.5105 232.858 54.9831 232.544 54.4151C232.229 53.837 231.347 53.5935 230.627 53.8471C229.927 54.0905 229.745 54.5368 229.917 55.6119ZM229.897 59.0096C229.643 59.6689 229.826 60.1253 230.475 60.3687C231.165 60.6324 232.179 60.4499 232.493 59.9935C232.818 59.5269 232.676 58.9792 232.108 58.6851C231.307 58.2794 230.556 58.4011 229.897 59.0096Z" fill="white"></path><path d="M179.539 58.5225C179.184 58.695 178.951 58.6544 178.636 58.6037C178.636 57.559 178.657 56.5549 178.626 55.5609C178.596 54.5568 178.829 53.6947 179.813 53.2484C180.766 52.8224 181.628 53.0354 182.349 53.8063C182.653 53.6034 182.927 53.36 183.241 53.218C184.59 52.6196 186.02 53.502 186.101 55.0031C186.162 56.1695 186.111 57.3359 186.111 58.4211C185.858 58.7457 185.625 58.6544 185.33 58.5834C185.097 57.2547 185.391 55.8753 185.168 54.5365C184.793 53.9584 184.296 53.6643 183.627 53.8975C182.957 54.1308 182.795 54.6988 182.805 55.3581C182.825 56.4027 182.805 57.4576 182.805 58.4617C182.582 58.7254 182.349 58.6645 182.125 58.6037C182.085 58.5327 182.004 58.4718 182.004 58.411C181.994 57.3663 182.004 56.3115 181.973 55.2668C181.943 54.3235 181.466 53.8063 180.705 53.8265C179.985 53.8468 179.559 54.3235 179.539 55.2262C179.519 56.3115 179.539 57.3967 179.539 58.5225Z" fill="white"></path><path d="M172.734 55.0844C173.535 56.2609 174.295 57.3867 175.066 58.5126C174.721 58.7357 174.437 58.6241 174.103 58.6647C173.332 57.5287 172.561 56.4029 171.8 55.2872C171.425 55.1757 171.06 55.2162 170.654 55.2467C170.431 56.3116 170.675 57.3969 170.533 58.4416C170.309 58.7864 170.025 58.6038 169.721 58.6546C169.721 55.9871 169.721 53.3906 169.721 50.8144C170.005 50.6318 170.228 50.7028 170.553 50.7738C170.553 51.9301 170.553 53.0863 170.553 54.202C172.916 54.7193 173.849 53.776 174.032 50.7941C174.255 50.6521 174.478 50.6521 174.711 50.7637C175.087 52.8936 174.671 53.8572 172.734 55.0844Z" fill="white"></path><path d="M224.481 50.7534C224.957 50.6925 225.272 50.6316 225.647 50.8649C226.519 53.3803 227.412 55.9463 228.304 58.5022C227.99 58.7457 227.716 58.6341 227.422 58.6239C227.168 57.914 226.925 57.2344 226.661 56.5143C225.576 56.5143 224.491 56.5143 223.375 56.5143C223.142 57.1837 222.919 57.8227 222.695 58.4718C222.432 58.7659 222.138 58.6645 221.752 58.5732C222.675 55.926 223.578 53.3498 224.481 50.7534ZM225.15 51.8792C225.079 51.8893 225.008 51.8893 224.937 51.8995C224.521 53.1267 224.105 54.3539 223.669 55.6522C224.623 55.7536 225.444 55.7333 226.397 55.6623C225.972 54.3539 225.566 53.1166 225.15 51.8792Z" fill="white"></path><path d="M157.723 57.3362C158.007 57.4072 158.067 57.5593 158.138 57.7114C158.199 58.0867 157.114 58.746 156.292 58.8372C154.68 58.9995 153.27 57.8027 153.169 56.1698C153.067 54.4151 154.274 53.1067 155.968 53.056C157.276 53.0155 158.93 54.2528 158.554 56.3422C157.104 56.3422 155.633 56.3422 154.122 56.3422C154.629 58.1678 156.029 58.5228 157.723 57.3362ZM157.773 55.5308C157.428 54.2528 156.84 53.7559 155.846 53.837C154.883 53.908 154.355 54.4354 154.193 55.5308C155.359 55.5308 156.516 55.5308 157.773 55.5308Z" fill="white"></path><path d="M165.147 58.5433C164.62 58.8476 164.407 58.5129 164.244 58.1173C162.439 59.1113 160.958 58.9794 160.035 57.742C159.224 56.6568 159.315 54.9021 160.228 53.9284C161.273 52.8128 162.784 52.7722 164.265 53.8169C164.407 53.4315 164.549 53.0359 165.157 53.33C165.147 55.0543 165.147 56.7988 165.147 58.5433ZM164.346 55.9367C164.346 54.7094 163.514 53.827 162.368 53.827C161.232 53.827 160.37 54.7297 160.36 55.9265C160.36 57.1436 161.181 58.0159 162.348 58.026C163.534 58.026 164.346 57.174 164.346 55.9367Z" fill="white"></path><path d="M250.354 56.3119C250.79 58.168 252.18 58.5128 253.914 57.3262C254.188 57.3667 254.31 57.5493 254.36 57.8029C253.204 59.1924 251.429 58.9997 250.445 58.239C249.38 57.4174 249.015 55.9062 249.604 54.6384C250.151 53.4619 251.581 52.7925 252.859 53.117C254.178 53.4517 254.878 54.5573 254.797 56.3119C253.326 56.3119 251.845 56.3119 250.354 56.3119ZM253.934 55.5208C253.59 54.2428 252.971 53.7459 251.997 53.827C251.064 53.9081 250.547 54.4457 250.385 55.5208C251.541 55.5208 252.697 55.5208 253.934 55.5208Z" fill="white"></path><path d="M192.086 53.8268C192.329 53.3805 192.329 53.3805 192.948 53.2689C192.948 55.0337 192.948 56.7782 192.948 58.5633C192.359 58.8879 192.207 58.543 192.187 57.9041C191.436 58.5633 190.645 58.9792 189.661 58.8067C188.962 58.685 188.363 58.3807 187.917 57.8229C187.065 56.7579 187.136 54.9019 188.059 53.918C189.104 52.8125 190.605 52.7821 192.086 53.8268ZM192.207 55.9161C192.197 54.7193 191.315 53.8166 190.169 53.8268C189.043 53.8369 188.15 54.77 188.16 55.9465C188.171 57.1332 189.043 58.0258 190.209 58.0258C191.365 58.0156 192.217 57.1231 192.207 55.9161Z" fill="white"></path><path d="M218.659 55.8958C218.679 57.5288 217.411 58.8372 215.799 58.8473C214.186 58.8574 212.888 57.5491 212.888 55.9364C212.898 54.3542 214.125 53.0965 215.697 53.0661C217.34 53.0154 218.638 54.2629 218.659 55.8958ZM213.811 55.9263C213.811 57.1839 214.622 58.0258 215.809 58.0156C216.945 57.9953 217.726 57.1839 217.746 55.9871C217.766 54.7396 216.965 53.847 215.799 53.8268C214.653 53.8065 213.811 54.6889 213.811 55.9263Z" fill="white"></path><path d="M234.694 53.3705C235.029 53.1474 235.242 53.2184 235.566 53.33C235.566 54.4152 235.536 55.5005 235.576 56.5756C235.617 57.4884 236.023 57.9144 236.763 57.9955C237.666 58.0868 238.254 57.5695 238.285 56.5553C238.325 55.47 238.295 54.3949 238.295 53.3705C238.619 53.1677 238.832 53.2083 239.136 53.3503C239.136 54.4558 239.167 55.5816 239.126 56.7074C239.086 57.955 238.183 58.8272 236.956 58.8374C235.749 58.8576 234.765 57.9955 234.704 56.7784C234.654 55.6526 234.694 54.5268 234.694 53.3705Z" fill="white"></path><path d="M151.952 58.5327C151.668 58.695 151.475 58.6545 151.221 58.6139C150.998 58.0865 151.14 57.5286 151.12 56.9809C151.1 56.4941 151.13 56.0073 151.11 55.5306C151.069 54.3743 150.572 53.7962 149.68 53.8266C148.828 53.857 148.371 54.4149 148.341 55.5001C148.321 56.1493 148.341 56.7882 148.341 57.4374C148.341 57.7923 148.341 58.1575 148.341 58.4212C148.087 58.7863 147.844 58.5835 147.54 58.7052C147.54 57.3258 147.448 56.0478 147.57 54.78C147.671 53.6745 148.676 53.0051 149.852 53.0558C151.008 53.0964 151.901 53.8672 151.952 54.9829C152.002 56.1797 151.952 57.3866 151.952 58.5327Z" fill="white"></path><path d="M212.462 57.884C212.634 58.2085 212.593 58.3911 212.492 58.6142C211.143 58.6142 209.784 58.6142 208.364 58.6142C208.364 56.0076 208.364 53.4517 208.364 50.8653C208.557 50.6118 208.82 50.6726 209.206 50.7943C209.206 53.117 209.206 55.4802 209.206 57.884C210.372 57.884 211.407 57.884 212.462 57.884Z" fill="white"></path><path d="M140.683 57.8737C141.86 57.8737 142.894 57.8737 143.807 57.8737C144.162 58.0664 144.111 58.2692 144.061 58.5633C142.712 58.5633 141.332 58.5633 139.882 58.5633C139.882 56.0074 139.882 53.4211 139.882 50.8246C140.085 50.5913 140.328 50.7638 140.693 50.6826C140.683 53.1067 140.683 55.4597 140.683 57.8737Z" fill="white"></path><path d="M197.136 58.0463C197.116 58.2897 197.106 58.4419 197.086 58.594C195.422 58.8171 194.682 58.239 194.662 56.6568C194.641 54.6993 194.651 52.7316 194.651 50.835C194.946 50.6727 195.138 50.6829 195.483 50.8249C195.483 52.113 195.483 53.4619 195.483 54.8109C195.483 55.2571 195.483 55.6933 195.483 56.1395C195.503 57.5696 195.666 57.7623 197.136 58.0463Z" fill="white"></path><path d="M248.955 53.6951C247.433 54.0298 247.352 54.1414 247.342 55.7236C247.342 56.606 247.342 57.4884 247.332 58.381C247.332 58.452 247.271 58.523 247.24 58.6041C247.058 58.7055 246.865 58.6954 246.541 58.5737C246.49 57.1943 246.378 55.7642 246.601 54.3544C246.754 53.4416 247.727 52.8939 248.63 53.0866C248.944 53.1373 248.985 53.3401 248.955 53.6951Z" fill="white"></path><path d="M243.204 58.5535C243.204 57.2958 243.153 56.0179 243.214 54.7399C243.275 53.5025 243.995 53.0258 245.486 53.1272C245.678 53.2794 245.618 53.4721 245.577 53.7561C245.182 53.8879 244.634 53.7561 244.279 54.1821C243.751 55.5614 244.167 57.022 243.964 58.4723C243.802 58.7563 243.549 58.6752 243.204 58.5535Z" fill="white"></path><path d="M176.294 53.2995C176.537 53.1981 176.73 53.1981 176.983 53.3401C176.983 55.0542 176.983 56.8088 176.983 58.5432C176.77 58.6852 176.567 58.6649 176.294 58.6041C176.294 56.8798 176.294 55.1252 176.294 53.2995Z" fill="white"></path><path d="M240.8 53.2589C241.084 53.2487 241.287 53.1676 241.52 53.3907C241.52 55.0541 241.52 56.7783 241.52 58.5127C241.348 58.746 241.104 58.6344 240.8 58.6648C240.8 56.8595 240.8 55.1048 240.8 53.2589Z" fill="white"></path><path d="M145.825 58.5837C145.572 58.6749 145.389 58.7054 145.126 58.5431C145.126 56.8696 145.126 55.1454 145.126 53.3603C145.247 53.1574 145.501 53.2284 145.825 53.2487C145.825 55.0034 145.825 56.758 145.825 58.5837Z" fill="white"></path><path d="M203.932 54.3845C204.074 54.5468 204.043 54.7091 204.013 54.9525C202.847 54.9525 201.67 54.9525 200.412 54.9525C200.26 54.8714 200.301 54.6787 200.351 54.3845C201.498 54.3845 202.684 54.3845 203.932 54.3845Z" fill="white"></path><path d="M145.775 50.5306C146.17 50.3582 146.444 50.4292 146.708 50.4292C146.789 50.6929 146.627 50.845 146.505 50.9667C146.028 51.3927 145.917 52.3664 144.801 52.0722C145.146 51.5144 145.46 51.0276 145.775 50.5306Z" fill="white"></path><path d="M240.536 51.6665C240.942 50.9869 241.317 50.9463 241.743 51.6462C241.337 52.3967 240.972 52.3866 240.536 51.6665Z" fill="white"></path><path d="M177.216 51.717C176.963 52.2038 176.648 52.3864 176.253 52.0314C176.009 51.8184 176.06 51.4735 176.293 51.291C176.719 50.9766 177.024 51.1693 177.216 51.717Z" fill="white"></path><path d="M132.914 17.8819H104.951C104.373 17.8819 103.906 17.4154 103.906 16.8373V13.4902C103.906 12.9121 104.373 12.4456 104.951 12.4456H132.914C133.492 12.4456 133.959 12.9121 133.959 13.4902V16.8271C133.959 17.4052 133.492 17.8819 132.914 17.8819Z" fill="#1CD7B7"></path><path d="M132.914 43.238H104.951C104.373 43.238 103.906 42.7715 103.906 42.1933V38.8463C103.906 38.2682 104.373 37.8016 104.951 37.8016H132.914C133.492 37.8016 133.959 38.2682 133.959 38.8463V42.1832C133.959 42.7715 133.492 43.238 132.914 43.238Z" fill="#1CD7B7"></path><path d="M116.017 30.276H104.941C104.363 30.276 103.896 29.8094 103.896 29.2313V26.4624C103.896 25.8843 104.363 25.4177 104.941 25.4177H116.017C116.595 25.4177 117.061 25.8843 117.061 26.4624V29.2313C117.061 29.7993 116.595 30.276 116.017 30.276Z" fill="#1CD7B7"></path><path d="M132.904 30.276H121.828C121.25 30.276 120.783 29.8094 120.783 29.2313V26.4624C120.783 25.8843 121.25 25.4177 121.828 25.4177H132.904C133.482 25.4177 133.948 25.8843 133.948 26.4624V29.2313C133.948 29.7993 133.482 30.276 132.904 30.276Z" fill="#1CD7B7"></path></svg>